<?xml version="1.0" encoding="utf-8"?>
<!-- Generator: Adobe Illustrator 24.0.3, SVG Export Plug-In . SVG Version: 6.00 Build 0)  -->
<svg version="1.1" id="Layer_1" xmlns="http://www.w3.org/2000/svg" xmlns:xlink="http://www.w3.org/1999/xlink" x="0px" y="0px"
	 viewBox="0 0 95.52 95.5" style="enable-background:new 0 0 95.52 95.5;" xml:space="preserve">
<style type="text/css">
	.st0{fill:#DCBC65;}
</style>
<path class="st0" d="M47.76,0C21.43,0,0.01,21.42,0.01,47.75c0,26.33,21.42,47.75,47.75,47.75s47.75-21.42,47.75-47.75
	C95.51,21.42,74.09,0,47.76,0z M37.13,50.11c7.01,4.12,14.15,4.14,21.2,0.04c0.84-0.49,1.56-0.51,2.4-0.1
	c10.8,5.42,16.8,14.31,17.85,26.4c0.07,0.84-0.19,1.53-0.82,2.14c-3.73,3.59-7.88,6.43-12.32,8.45c-4.46,2.02-9.29,3.26-14.34,3.67
	l-0.48,0.04c-0.36,0.03-0.7,0.07-1.05,0.08c-0.24,0.01-0.49,0.01-0.73,0.01h-1.08c-11.68-0.17-21.76-4.31-29.97-12.3
	c-0.54-0.51-0.86-1.34-0.8-2.01c0.96-12.17,6.99-21.09,17.91-26.53C35.67,49.63,36.34,49.66,37.13,50.11z M31.93,32.97
	c0-2.1,0.4-4.14,1.2-6.06c0.79-1.9,1.96-3.63,3.45-5.13c2.96-2.95,6.95-4.6,11.24-4.63c8.7,0.02,15.77,7.13,15.77,15.85
	c0,4.23-1.65,8.2-4.65,11.2c-2.99,2.98-6.97,4.63-11.2,4.63C38.99,48.79,31.91,41.68,31.93,32.97z M63.91,46.71l-0.82-0.46
	l0.56-0.75c4.15-5.65,5.33-11.78,3.48-18.21c-1.3-4.54-4-8.25-8.01-11c-7.89-5.42-18.3-4.57-25.32,2.08
	c-6.35,6.01-9.19,17.57-1.96,27.13l0.57,0.75l-0.83,0.46C21.99,52,15.84,60.09,13.28,70.76l-0.43,1.74l-1.03-1.44
	C3.04,58.81,1.12,36.97,14.84,20.61c15.32-18.26,41.7-20.78,60.07-5.72c19.42,15.92,19.05,40.87,8.84,56.27l-1.04,1.55l-0.44-1.81
	C79.66,59.97,73.65,52.07,63.91,46.71z"/>
</svg>
